<?xml version="1.0" encoding="utf-8"?>
<!-- Generator: Adobe Illustrator 21.0.2, SVG Export Plug-In . SVG Version: 6.00 Build 0)  -->
<svg version="1.1" id="Layer_1" xmlns="http://www.w3.org/2000/svg" xmlns:xlink="http://www.w3.org/1999/xlink" x="0px" y="0px"
	 viewBox="0 0 30 30" style="enable-background:new 0 0 30 30;" xml:space="preserve">
<style type="text/css">
	.st0{fill:#FFFFFF;}
</style>
<g>
	<circle class="st0" cx="15" cy="15" r="2.9"/>
	<path class="st0" d="M21.8,9.9c-0.2-0.4-0.3-0.7-0.7-1c-0.3-0.3-0.6-0.5-1-0.7c-0.3-0.1-0.8-0.3-1.6-0.3c-0.9,0-1.2-0.1-3.5-0.1
		c-2.3,0-2.6,0-3.5,0.1c-0.9,0-1.3,0.2-1.6,0.3c-0.4,0.2-0.7,0.3-1,0.7c-0.3,0.3-0.5,0.6-0.7,1c-0.1,0.3-0.3,0.8-0.3,1.6
		c0,0.9-0.1,1.2-0.1,3.5c0,2.3,0,2.6,0.1,3.5c0,0.9,0.2,1.3,0.3,1.6c0.2,0.4,0.3,0.7,0.7,1c0.3,0.3,0.6,0.5,1,0.7
		c0.3,0.1,0.8,0.3,1.6,0.3c0.9,0,1.2,0.1,3.5,0.1c2.3,0,2.6,0,3.5-0.1c0.9,0,1.3-0.2,1.6-0.3c0.4-0.2,0.7-0.3,1-0.7
		c0.3-0.3,0.5-0.6,0.7-1c0.1-0.3,0.3-0.8,0.3-1.6c0-0.9,0.1-1.2,0.1-3.5c0-2.3,0-2.6-0.1-3.5C22.1,10.6,21.9,10.2,21.8,9.9z
		 M15,19.5c-2.5,0-4.5-2-4.5-4.5c0-2.5,2-4.5,4.5-4.5c2.5,0,4.5,2,4.5,4.5C19.5,17.5,17.5,19.5,15,19.5z M19.7,11.4
		c-0.6,0-1-0.5-1-1c0-0.6,0.5-1,1-1c0.6,0,1,0.5,1,1C20.7,10.9,20.2,11.4,19.7,11.4z"/>
	<path class="st0" d="M15,0C6.7,0,0,6.7,0,15s6.7,15,15,15s15-6.7,15-15S23.3,0,15,0z M23.7,18.6c0,0.9-0.2,1.6-0.4,2.1
		c-0.2,0.6-0.5,1.1-1,1.5c-0.5,0.5-1,0.8-1.5,1c-0.6,0.2-1.2,0.4-2.1,0.4c-0.9,0-1.2,0.1-3.6,0.1c-2.4,0-2.7,0-3.6-0.1
		c-0.9,0-1.6-0.2-2.1-0.4c-0.6-0.2-1.1-0.5-1.5-1c-0.5-0.5-0.8-1-1-1.5c-0.2-0.6-0.4-1.2-0.4-2.1c0-0.9-0.1-1.2-0.1-3.6
		s0-2.7,0.1-3.6c0-0.9,0.2-1.6,0.4-2.1c0.2-0.6,0.5-1.1,1-1.5c0.5-0.5,1-0.8,1.5-1c0.6-0.2,1.2-0.4,2.1-0.4c0.9,0,1.2-0.1,3.6-0.1
		c2.4,0,2.7,0,3.6,0.1c0.9,0,1.6,0.2,2.1,0.4c0.6,0.2,1.1,0.5,1.5,1c0.5,0.5,0.8,1,1,1.5c0.2,0.6,0.4,1.2,0.4,2.1
		c0,0.9,0.1,1.2,0.1,3.6S23.7,17.7,23.7,18.6z"/>
</g>
</svg>
